<svg width="25" height="25" viewBox="0 0 25 25" fill="none" xmlns="http://www.w3.org/2000/svg">
<path d="M12.4999 2.08325C11.132 2.08325 9.77744 2.35269 8.51363 2.87617C7.24982 3.39966 6.1015 4.16695 5.13422 5.13422C3.18072 7.08773 2.08325 9.73725 2.08325 12.4999C2.08325 17.1041 5.07284 21.0103 9.20825 22.3958C9.72909 22.4791 9.89575 22.1562 9.89575 21.8749V20.1145C7.01034 20.7395 6.39575 18.7187 6.39575 18.7187C5.91659 17.5103 5.2395 17.1874 5.2395 17.1874C4.29159 16.5416 5.31242 16.5624 5.31242 16.5624C6.35409 16.6353 6.90617 17.6353 6.90617 17.6353C7.81242 19.2187 9.34367 18.7499 9.93742 18.4999C10.0312 17.8228 10.302 17.3645 10.5937 17.1041C8.28117 16.8437 5.85409 15.9478 5.85409 11.9791C5.85409 10.8228 6.24992 9.89575 6.927 9.15617C6.82284 8.89575 6.45825 7.81242 7.03117 6.40617C7.03117 6.40617 7.90617 6.12492 9.89575 7.46867C10.7187 7.2395 11.6145 7.12492 12.4999 7.12492C13.3853 7.12492 14.2812 7.2395 15.1041 7.46867C17.0937 6.12492 17.9687 6.40617 17.9687 6.40617C18.5416 7.81242 18.177 8.89575 18.0728 9.15617C18.7499 9.89575 19.1458 10.8228 19.1458 11.9791C19.1458 15.9583 16.7083 16.8333 14.3853 17.0937C14.7603 17.4166 15.1041 18.052 15.1041 19.0208V21.8749C15.1041 22.1562 15.2708 22.4895 15.802 22.3958C19.9374 20.9999 22.9166 17.1041 22.9166 12.4999C22.9166 11.132 22.6472 9.77744 22.1237 8.51363C21.6002 7.24982 20.8329 6.1015 19.8656 5.13422C18.8983 4.16695 17.75 3.39966 16.4862 2.87617C15.2224 2.35269 13.8679 2.08325 12.4999 2.08325Z" fill="white"/>
</svg>
