<svg width="25" height="25" viewBox="0 0 25 25" fill="none" xmlns="http://www.w3.org/2000/svg">
<path d="M12.4999 2.08325C6.74992 2.08325 2.08325 6.74992 2.08325 12.4999C2.08325 18.2499 6.74992 22.9166 12.4999 22.9166C18.2499 22.9166 22.9166 18.2499 22.9166 12.4999C22.9166 6.74992 18.2499 2.08325 12.4999 2.08325ZM17.3333 9.16659C17.177 10.8124 16.4999 14.8124 16.1562 16.6562C16.0103 17.4374 15.7187 17.6978 15.4478 17.7291C14.8437 17.7812 14.3853 17.3333 13.802 16.9478C12.8853 16.3437 12.3645 15.9687 11.4791 15.3853C10.4478 14.7083 11.1145 14.3333 11.7083 13.7291C11.8645 13.5728 14.5312 11.1458 14.5833 10.927C14.5905 10.8939 14.5895 10.8595 14.5804 10.8268C14.5714 10.7941 14.5545 10.7642 14.5312 10.7395C14.4687 10.6874 14.3853 10.7083 14.3124 10.7187C14.2187 10.7395 12.7603 11.7083 9.91659 13.6249C9.49992 13.9062 9.12492 14.052 8.79159 14.0416C8.41659 14.0312 7.70825 13.8333 7.177 13.6562C6.52075 13.4478 6.01034 13.3333 6.052 12.9687C6.07284 12.7812 6.33325 12.5937 6.82284 12.3958C9.8645 11.0728 11.8853 10.1978 12.8958 9.78117C15.7916 8.57284 16.3853 8.3645 16.7812 8.3645C16.8645 8.3645 17.0624 8.38534 17.1874 8.4895C17.2916 8.57284 17.3228 8.68742 17.3333 8.77075C17.3228 8.83325 17.3437 9.02075 17.3333 9.16659Z" fill="white"/>
</svg>
